<mxfile host="app.diagrams.net" modified="2022-11-01T23:32:14.539Z" agent="5.0 (Windows NT 10.0; Win64; x64) AppleWebKit/537.36 (KHTML, like Gecko) Chrome/107.0.0.0 Safari/537.36" etag="m8-nxZB3M5YUli4dkPUp" version="20.5.1" type="github">
  <diagram id="kgpKYQtTHZ0yAKxKKP6v" name="Page-1">
    <mxGraphModel dx="740" dy="418" grid="1" gridSize="10" guides="1" tooltips="1" connect="1" arrows="1" fold="1" page="1" pageScale="1" pageWidth="850" pageHeight="1100" math="0" shadow="0">
      <root>
        <mxCell id="0" />
        <mxCell id="1" parent="0" />
        <mxCell id="3nuBFxr9cyL0pnOWT2aG-1" value="User Agent" style="shape=umlLifeline;perimeter=lifelinePerimeter;container=1;collapsible=0;recursiveResize=0;rounded=0;shadow=0;strokeWidth=1;size=20;" parent="1" vertex="1">
          <mxGeometry x="300" y="190" width="100" height="300" as="geometry" />
        </mxCell>
        <mxCell id="c5NPfFB2k1OfmSP-pEoB-5" value="Resource &lt;br&gt;Owner" style="shape=umlActor;verticalLabelPosition=bottom;verticalAlign=top;html=1;outlineConnect=0;" parent="3nuBFxr9cyL0pnOWT2aG-1" vertex="1">
          <mxGeometry x="17.5" y="90" width="65" height="150" as="geometry" />
        </mxCell>
        <mxCell id="3nuBFxr9cyL0pnOWT2aG-5" value="Client" style="shape=umlLifeline;perimeter=lifelinePerimeter;container=1;collapsible=0;recursiveResize=0;rounded=0;shadow=0;strokeWidth=1;" parent="1" vertex="1">
          <mxGeometry x="480" y="190" width="100" height="300" as="geometry" />
        </mxCell>
        <mxCell id="3nuBFxr9cyL0pnOWT2aG-6" value="" style="points=[];perimeter=orthogonalPerimeter;rounded=0;shadow=0;strokeWidth=1;" parent="3nuBFxr9cyL0pnOWT2aG-5" vertex="1">
          <mxGeometry x="45" y="80" width="10" height="160" as="geometry" />
        </mxCell>
        <mxCell id="c5NPfFB2k1OfmSP-pEoB-26" value="" style="shape=flexArrow;endArrow=classic;startArrow=classic;html=1;rounded=0;fontFamily=Verdana;fontSize=16;fontColor=#000000;width=8.484848484848484;endSize=10.933333333333334;startSize=10.933333333333334;" parent="3nuBFxr9cyL0pnOWT2aG-5" edge="1">
          <mxGeometry width="100" height="100" relative="1" as="geometry">
            <mxPoint x="80" y="199.1700000000004" as="sourcePoint" />
            <mxPoint x="260" y="199.16999999999996" as="targetPoint" />
            <Array as="points">
              <mxPoint x="200" y="199.16999999999996" />
            </Array>
          </mxGeometry>
        </mxCell>
        <mxCell id="c5NPfFB2k1OfmSP-pEoB-27" value="Step 4" style="edgeLabel;html=1;align=center;verticalAlign=middle;resizable=0;points=[];fontSize=16;fontFamily=Verdana;fontColor=#000000;" parent="c5NPfFB2k1OfmSP-pEoB-26" vertex="1" connectable="0">
          <mxGeometry x="0.0325" y="-4" relative="1" as="geometry">
            <mxPoint as="offset" />
          </mxGeometry>
        </mxCell>
        <mxCell id="c5NPfFB2k1OfmSP-pEoB-1" value="Resource &#xa;Server" style="shape=umlLifeline;perimeter=lifelinePerimeter;container=1;collapsible=0;recursiveResize=0;rounded=0;shadow=0;strokeWidth=1;" parent="1" vertex="1">
          <mxGeometry x="930" y="190" width="100" height="300" as="geometry" />
        </mxCell>
        <mxCell id="c5NPfFB2k1OfmSP-pEoB-2" value="" style="points=[];perimeter=orthogonalPerimeter;rounded=0;shadow=0;strokeWidth=1;" parent="c5NPfFB2k1OfmSP-pEoB-1" vertex="1">
          <mxGeometry x="45" y="80" width="10" height="160" as="geometry" />
        </mxCell>
        <mxCell id="c5NPfFB2k1OfmSP-pEoB-3" value="Authorization&#xa;Server" style="shape=umlLifeline;perimeter=lifelinePerimeter;container=1;collapsible=0;recursiveResize=0;rounded=0;shadow=0;strokeWidth=1;" parent="1" vertex="1">
          <mxGeometry x="700" y="190" width="100" height="300" as="geometry" />
        </mxCell>
        <mxCell id="c5NPfFB2k1OfmSP-pEoB-4" value="" style="points=[];perimeter=orthogonalPerimeter;rounded=0;shadow=0;strokeWidth=1;" parent="c5NPfFB2k1OfmSP-pEoB-3" vertex="1">
          <mxGeometry x="45" y="80" width="10" height="160" as="geometry" />
        </mxCell>
        <mxCell id="c5NPfFB2k1OfmSP-pEoB-24" value="" style="shape=flexArrow;endArrow=classic;startArrow=classic;html=1;rounded=0;fontFamily=Verdana;fontSize=16;fontColor=#000000;width=9.696969696969697;endSize=10.933333333333334;startSize=10.933333333333334;" parent="c5NPfFB2k1OfmSP-pEoB-3" edge="1">
          <mxGeometry width="100" height="100" relative="1" as="geometry">
            <mxPoint x="-140" y="238.3300000000005" as="sourcePoint" />
            <mxPoint x="40" y="238.33000000000004" as="targetPoint" />
            <Array as="points">
              <mxPoint x="-20" y="238.33000000000004" />
            </Array>
          </mxGeometry>
        </mxCell>
        <mxCell id="c5NPfFB2k1OfmSP-pEoB-25" value="Step 5" style="edgeLabel;html=1;align=center;verticalAlign=middle;resizable=0;points=[];fontSize=16;fontFamily=Verdana;fontColor=#000000;" parent="c5NPfFB2k1OfmSP-pEoB-24" vertex="1" connectable="0">
          <mxGeometry x="0.0325" y="-4" relative="1" as="geometry">
            <mxPoint as="offset" />
          </mxGeometry>
        </mxCell>
        <mxCell id="c5NPfFB2k1OfmSP-pEoB-8" value="&lt;ul style=&quot;box-sizing: border-box; border: 0px; font-variant-numeric: inherit; font-variant-east-asian: inherit; font-stretch: inherit; line-height: inherit; margin: 0px 0px 30px; outline: 0px; padding: 0px 0px 0px 35px; vertical-align: baseline; list-style: square; text-align: start; background-color: rgb(255, 255, 255);&quot;&gt;&lt;li style=&quot;box-sizing: border-box; border: 0px; font-variant: inherit; font-stretch: inherit; line-height: inherit; font-style: inherit; margin: 0px; outline: 0px; padding: 0px; vertical-align: baseline;&quot;&gt;&lt;b style=&quot;&quot;&gt;&lt;font style=&quot;&quot; face=&quot;Verdana&quot;&gt;OAuth Provider (also known as OAuth server or authorization server)&lt;/font&gt;&lt;/b&gt;&lt;/li&gt;&lt;/ul&gt;" style="text;html=1;strokeColor=none;fillColor=none;align=center;verticalAlign=middle;whiteSpace=wrap;rounded=0;fontSize=16;" parent="1" vertex="1">
          <mxGeometry x="680" y="510" width="200" height="160" as="geometry" />
        </mxCell>
        <mxCell id="c5NPfFB2k1OfmSP-pEoB-9" value="&lt;h1&gt;&lt;ul style=&quot;box-sizing: border-box; border: 0px; font-variant-numeric: inherit; font-variant-east-asian: inherit; font-stretch: inherit; line-height: inherit; font-size: 16px; margin: 0px 0px 30px; outline: 0px; padding: 0px 0px 0px 35px; vertical-align: baseline; list-style: square; background-color: rgb(255, 255, 255);&quot;&gt;&lt;li style=&quot;box-sizing: border-box; border: 0px; font-variant: inherit; font-stretch: inherit; line-height: inherit; font-style: inherit; margin: 0px; outline: 0px; padding: 0px; vertical-align: baseline;&quot;&gt;&lt;font style=&quot;&quot; face=&quot;Verdana&quot;&gt;Resource Provider (usually a set of web APIs e.g. Google Drive, Github Repository, Twitter&amp;nbsp;etc.&lt;/font&gt;&lt;/li&gt;&lt;/ul&gt;&lt;/h1&gt;" style="text;html=1;strokeColor=none;fillColor=none;spacing=5;spacingTop=-20;whiteSpace=wrap;overflow=hidden;rounded=0;fontSize=16;" parent="1" vertex="1">
          <mxGeometry x="885" y="520" width="190" height="200" as="geometry" />
        </mxCell>
        <mxCell id="c5NPfFB2k1OfmSP-pEoB-10" value="&lt;h1&gt;5 Steps to get token&lt;/h1&gt;&lt;ol style=&quot;box-sizing: border-box; margin-top: 0px; margin-bottom: 10px; color: rgb(46, 52, 59); font-family: &amp;quot;Open Sans&amp;quot;; font-size: 24px;&quot;&gt;&lt;li style=&quot;box-sizing: border-box;&quot;&gt;Pre-register Client (App) with OAuth Server to get Client ID/Client Secret&lt;/li&gt;&lt;li style=&quot;box-sizing: border-box;&quot;&gt;OAuth Server authenticates user when she clicks on the Appâ€™s social login button, which is tagged with Client ID&lt;/li&gt;&lt;li style=&quot;box-sizing: border-box;&quot;&gt;OAuth Server solicits user permission to allow the App to perform something on her behalf&lt;/li&gt;&lt;li style=&quot;box-sizing: border-box;&quot;&gt;OAuth Server sends secret Code to App&lt;/li&gt;&lt;li style=&quot;box-sizing: border-box;&quot;&gt;App acquires Key/Access Token from OAuth Server by presenting secret Code and Client Secret&lt;/li&gt;&lt;/ol&gt;&lt;div&gt;&lt;font face=&quot;Open Sans&quot; color=&quot;#2e343b&quot;&gt;&lt;span style=&quot;font-size: 24px;&quot;&gt;https://blog.oauth.io/introduction-oauth2-flow-diagrams/&lt;/span&gt;&lt;br&gt;&lt;/font&gt;&lt;/div&gt;&lt;div&gt;&lt;br&gt;&lt;/div&gt;" style="text;html=1;strokeColor=none;fillColor=none;spacing=5;spacingTop=-20;whiteSpace=wrap;overflow=hidden;rounded=0;labelBackgroundColor=#FFFFFF;fontFamily=Verdana;fontSize=16;fontColor=#000000;" parent="1" vertex="1">
          <mxGeometry x="1100" y="190" width="560" height="430" as="geometry" />
        </mxCell>
        <mxCell id="c5NPfFB2k1OfmSP-pEoB-11" value="&lt;h1&gt;&lt;font style=&quot;font-size: 16px;&quot;&gt;Client&lt;/font&gt;&lt;/h1&gt;&lt;h1 style=&quot;font-family: Helvetica; background-color: rgb(248, 249, 250); font-size: 16px;&quot;&gt;&lt;b&gt;&lt;font style=&quot;background-color: rgb(255, 255, 255);&quot; face=&quot;Verdana&quot;&gt;- Confidential clients&amp;nbsp;&lt;/font&gt;&lt;/b&gt;&lt;br&gt;&lt;/h1&gt;&lt;p style=&quot;font-family: Helvetica; background-color: rgb(248, 249, 250);&quot;&gt;&lt;b&gt;&lt;font style=&quot;background-color: rgb(255, 255, 255);&quot; face=&quot;Verdana&quot;&gt;- Public clients&lt;/font&gt;&lt;/b&gt;&lt;/p&gt;&lt;p style=&quot;font-family: Helvetica; background-color: rgb(248, 249, 250);&quot;&gt;&lt;span style=&quot;font-style: inherit; font-variant-ligatures: inherit; font-variant-caps: inherit; background-color: rgb(255, 255, 255);&quot;&gt;&lt;font face=&quot;Verdana&quot;&gt;&lt;b&gt;Client (usually a cloud app or mobile app)&lt;/b&gt;&lt;/font&gt;&lt;/span&gt;&lt;/p&gt;" style="text;html=1;strokeColor=none;fillColor=none;spacing=5;spacingTop=-20;whiteSpace=wrap;overflow=hidden;rounded=0;labelBackgroundColor=#FFFFFF;fontFamily=Verdana;fontSize=16;fontColor=#000000;" parent="1" vertex="1">
          <mxGeometry x="460" y="510" width="190" height="240" as="geometry" />
        </mxCell>
        <mxCell id="c5NPfFB2k1OfmSP-pEoB-12" value="&lt;b&gt;&lt;font style=&quot;font-size: 32px;&quot;&gt;OAuth Actors Interaction&lt;/font&gt;&lt;/b&gt;" style="text;html=1;strokeColor=none;fillColor=none;align=center;verticalAlign=middle;whiteSpace=wrap;rounded=0;labelBackgroundColor=#FFFFFF;fontFamily=Verdana;fontSize=16;fontColor=#000000;" parent="1" vertex="1">
          <mxGeometry x="10" y="40" width="420" height="80" as="geometry" />
        </mxCell>
        <mxCell id="c5NPfFB2k1OfmSP-pEoB-13" value="&lt;h1 style=&quot;font-size: 16px;&quot;&gt;Resource Owner&lt;font style=&quot;font-family: Lato, sans-serif; font-size: 16px;&quot;&gt;&amp;nbsp;&lt;/font&gt;&lt;font style=&quot;font-family: Lato, sans-serif; font-size: 16px;&quot;&gt;(also known as user)&lt;/font&gt;&lt;br&gt;&lt;/h1&gt;" style="text;html=1;strokeColor=none;fillColor=none;spacing=5;spacingTop=-20;whiteSpace=wrap;overflow=hidden;rounded=0;labelBackgroundColor=#FFFFFF;fontFamily=Verdana;fontSize=32;fontColor=#000000;" parent="1" vertex="1">
          <mxGeometry x="280" y="525" width="170" height="100" as="geometry" />
        </mxCell>
        <UserObject label="" link="https://blog.oauth.io/introduction-oauth2-flow-diagrams/" linkTarget="_blank" id="c5NPfFB2k1OfmSP-pEoB-14">
          <mxCell style="shape=image;verticalLabelPosition=bottom;labelBackgroundColor=default;verticalAlign=top;aspect=fixed;imageAspect=0;image=https://blog.oauth.io/wp-content/uploads/2018/09/OAuth-Flow-Comparison-1024x646.png;" parent="1" vertex="1">
            <mxGeometry x="140" y="780" width="1390.72" height="877.23" as="geometry" />
          </mxCell>
        </UserObject>
        <mxCell id="c5NPfFB2k1OfmSP-pEoB-16" value="" style="shape=flexArrow;endArrow=classic;startArrow=classic;html=1;rounded=0;fontFamily=Verdana;fontSize=16;fontColor=#000000;width=7.878787878787879;endSize=10.933333333333334;startSize=10.933333333333334;" parent="1" edge="1">
          <mxGeometry width="100" height="100" relative="1" as="geometry">
            <mxPoint x="400" y="300" as="sourcePoint" />
            <mxPoint x="730" y="300" as="targetPoint" />
            <Array as="points">
              <mxPoint x="470" y="300" />
            </Array>
          </mxGeometry>
        </mxCell>
        <mxCell id="c5NPfFB2k1OfmSP-pEoB-21" value="Step 2" style="edgeLabel;html=1;align=center;verticalAlign=middle;resizable=0;points=[];fontSize=16;fontFamily=Verdana;fontColor=#000000;" parent="c5NPfFB2k1OfmSP-pEoB-16" vertex="1" connectable="0">
          <mxGeometry x="0.0325" y="-4" relative="1" as="geometry">
            <mxPoint as="offset" />
          </mxGeometry>
        </mxCell>
        <mxCell id="c5NPfFB2k1OfmSP-pEoB-22" value="" style="shape=flexArrow;endArrow=classic;startArrow=classic;html=1;rounded=0;fontFamily=Verdana;fontSize=16;fontColor=#000000;width=9.090909090909092;endSize=10.933333333333334;startSize=10.933333333333334;" parent="1" edge="1">
          <mxGeometry width="100" height="100" relative="1" as="geometry">
            <mxPoint x="395" y="350.00000000000045" as="sourcePoint" />
            <mxPoint x="735" y="350.00000000000045" as="targetPoint" />
            <Array as="points">
              <mxPoint x="515" y="350" />
            </Array>
          </mxGeometry>
        </mxCell>
        <mxCell id="c5NPfFB2k1OfmSP-pEoB-23" value="Step 3" style="edgeLabel;html=1;align=center;verticalAlign=middle;resizable=0;points=[];fontSize=16;fontFamily=Verdana;fontColor=#000000;" parent="c5NPfFB2k1OfmSP-pEoB-22" vertex="1" connectable="0">
          <mxGeometry x="0.0325" y="-4" relative="1" as="geometry">
            <mxPoint as="offset" />
          </mxGeometry>
        </mxCell>
        <mxCell id="c5NPfFB2k1OfmSP-pEoB-28" value="" style="shape=flexArrow;endArrow=classic;startArrow=classic;html=1;rounded=0;fontFamily=Verdana;fontSize=16;fontColor=#000000;width=8.484848484848484;endSize=10.933333333333334;startSize=10.933333333333334;" parent="1" edge="1">
          <mxGeometry width="100" height="100" relative="1" as="geometry">
            <mxPoint x="540" y="260" as="sourcePoint" />
            <mxPoint x="735" y="260" as="targetPoint" />
            <Array as="points">
              <mxPoint x="540" y="260" />
            </Array>
          </mxGeometry>
        </mxCell>
        <mxCell id="c5NPfFB2k1OfmSP-pEoB-29" value="Step 1" style="edgeLabel;html=1;align=center;verticalAlign=middle;resizable=0;points=[];fontSize=16;fontFamily=Verdana;fontColor=#000000;" parent="c5NPfFB2k1OfmSP-pEoB-28" vertex="1" connectable="0">
          <mxGeometry x="0.0325" y="-4" relative="1" as="geometry">
            <mxPoint as="offset" />
          </mxGeometry>
        </mxCell>
        <mxCell id="c5NPfFB2k1OfmSP-pEoB-31" value="" style="shape=flexArrow;endArrow=classic;startArrow=classic;html=1;rounded=0;fontFamily=Verdana;fontSize=16;fontColor=#000000;width=11.666666666666668;endSize=10.933333333333334;startSize=10.933333333333334;" parent="1" target="c5NPfFB2k1OfmSP-pEoB-1" edge="1">
          <mxGeometry width="100" height="100" relative="1" as="geometry">
            <mxPoint x="550" y="480.0000000000004" as="sourcePoint" />
            <mxPoint x="730" y="479.99999999999994" as="targetPoint" />
            <Array as="points">
              <mxPoint x="670" y="480.00000000000006" />
            </Array>
          </mxGeometry>
        </mxCell>
        <mxCell id="c5NPfFB2k1OfmSP-pEoB-32" value="Step N" style="edgeLabel;html=1;align=center;verticalAlign=middle;resizable=0;points=[];fontSize=16;fontFamily=Verdana;fontColor=#000000;" parent="c5NPfFB2k1OfmSP-pEoB-31" vertex="1" connectable="0">
          <mxGeometry x="0.0325" y="-4" relative="1" as="geometry">
            <mxPoint as="offset" />
          </mxGeometry>
        </mxCell>
        <mxCell id="xtP72wtRn8Dwq6atNYCI-4" value="&lt;ul style=&quot;box-sizing: border-box; margin-top: 0px; margin-bottom: 10px; color: rgb(46, 52, 59); font-family: &amp;quot;Open Sans&amp;quot;; font-size: 20px; text-align: start; background-color: rgb(255, 255, 255);&quot;&gt;&lt;li style=&quot;box-sizing: border-box;&quot;&gt;&lt;b&gt;The â€˜cloudâ€™ icon represents the App&lt;/b&gt;&lt;/li&gt;&lt;li style=&quot;box-sizing: border-box;&quot;&gt;&lt;b&gt;The â€˜wwwâ€™ icon represents the User/Browser&lt;/b&gt;&lt;/li&gt;&lt;li style=&quot;box-sizing: border-box;&quot;&gt;&lt;b&gt;The â€˜safeâ€™ icon represents the OAuth Server&lt;/b&gt;&lt;/li&gt;&lt;li style=&quot;box-sizing: border-box;&quot;&gt;&lt;b&gt;â€˜N.A.â€™ means â€˜not applicableâ€™, i.e., the step is not required in the grant type flow&lt;/b&gt;&lt;/li&gt;&lt;/ul&gt;" style="text;html=1;strokeColor=none;fillColor=none;align=center;verticalAlign=middle;whiteSpace=wrap;rounded=0;fontSize=42;" parent="1" vertex="1">
          <mxGeometry x="190" y="1670" width="1300" height="180" as="geometry" />
        </mxCell>
      </root>
    </mxGraphModel>
  </diagram>
</mxfile>
